<svg xmlns="http://www.w3.org/2000/svg" xmlns:xlink="http://www.w3.org/1999/xlink" viewBox="0 0 804.59 202.81"><defs><style>.cls-1{fill:#07c7d3;}.cls-2{fill:url(#linear-gradient);}.cls-3{fill:url(#linear-gradient-2);}.cls-4{fill:url(#linear-gradient-3);}.cls-5{fill:url(#linear-gradient-4);}.cls-6{fill:url(#linear-gradient-5);}.cls-7{fill:url(#linear-gradient-6);}.cls-8{fill:url(#linear-gradient-7);}</style><linearGradient id="linear-gradient" x1="88.33" y1="3243.03" x2="113.92" y2="3198.69" gradientTransform="matrix(1, 0, 0, -1, 0, 3336.43)" gradientUnits="userSpaceOnUse"><stop offset="0" stop-color="#251647"/><stop offset="1" stop-color="#452982"/></linearGradient><linearGradient id="linear-gradient-2" x1="856.86" y1="3237.39" x2="251.03" y2="3238.64" gradientTransform="matrix(1, 0, 0, -1, 0, 3336.43)" gradientUnits="userSpaceOnUse"><stop offset="0" stop-color="#251a3e"/><stop offset="1" stop-color="#07c7d3"/></linearGradient><linearGradient id="linear-gradient-3" x1="856.81" y1="3215.93" x2="250.98" y2="3217.16" xlink:href="#linear-gradient-2"/><linearGradient id="linear-gradient-4" x1="856.81" y1="3216.67" x2="250.98" y2="3217.9" xlink:href="#linear-gradient-2"/><linearGradient id="linear-gradient-5" x1="856.86" y1="3237.21" x2="251.03" y2="3238.45" xlink:href="#linear-gradient-2"/><linearGradient id="linear-gradient-6" x1="856.81" y1="3217.02" x2="250.98" y2="3218.25" xlink:href="#linear-gradient-2"/><linearGradient id="linear-gradient-7" x1="856.78" y1="3199.01" x2="250.95" y2="3200.24" xlink:href="#linear-gradient-2"/></defs><title>Layer 2</title><g id="Layer_2" data-name="Layer 2"><g id="Layer_1-2" data-name="Layer 1"><g id="Layer_2-2" data-name="Layer 2"><g id="Layer_1-2-2" data-name="Layer 1-2"><circle class="cls-1" cx="29.4" cy="29.4" r="29.4"/><path class="cls-1" d="M169.84,0H122C101.81.82,90.89,12,82.41,25.72a54.23,54.23,0,0,0-8,24.47V109A54.92,54.92,0,0,1,126.68,58.4h43.53A29.3,29.3,0,0,0,199.4,29c0-.33,0-.66,0-1A29.45,29.45,0,0,0,169.84,0Z"/><polygon class="cls-1" points="132.84 58.45 132.84 58.4 131.8 58.4 132.84 58.45"/><path class="cls-2" d="M126.68,58.4A54.91,54.91,0,0,0,74.46,109v64.6a29.19,29.19,0,1,0,58.38,0V58.45h-1Z"/><path class="cls-3" d="M348.24,35.57a6.62,6.62,0,0,1,6.19-4.25A6.52,6.52,0,0,1,361,37.8v.09a8.77,8.77,0,0,1-.59,2.9L315.11,160.1a6.53,6.53,0,0,1-12.38,0L257.53,40.79a9.29,9.29,0,0,1-.58-2.9,6.5,6.5,0,0,1,6.45-6.57h.12a6.62,6.62,0,0,1,6.19,4.25l39.26,104Z"/><path class="cls-4" d="M381.87,79.85v50.48c0,12.56,4.07,23.39,23.6,23.39s23.59-10.83,23.59-23.39V79.85a6.28,6.28,0,0,1,6.37-6.18h0a6.06,6.06,0,0,1,6,6.14v50.51c0,18.36-6,35.19-36,35.19s-36-16.76-36-35.19V79.85a6.09,6.09,0,0,1,6-6.17.43.43,0,0,1,.16,0A6.21,6.21,0,0,1,381.87,79.85Z"/><path class="cls-5" d="M498.67,72.51c30.94,0,36.94,24.55,36.94,37.7,0,5.61,0,12.38-7.75,12.38H471.4c0,19.19,11,31.53,29.21,31.53,11.2,0,17.79-4.26,23.21-8.32a5.27,5.27,0,0,1,3.47-1.17,5.61,5.61,0,0,1,5.61,5.62h0a5.79,5.79,0,0,1-2.12,4.44c-2.92,2.9-13,10.83-30.17,10.83-25.72,0-41.77-14.12-41.77-46.61C458.84,89.14,473.46,72.51,498.67,72.51Zm0,11.19c-16.82,0-26.1,10.83-27.27,28h52c0-13.9-4.83-28-24.75-28Z"/><path class="cls-6" d="M553,45.24a6.19,6.19,0,0,1-.63-12.37h82.81a6.19,6.19,0,1,1,.63,12.37H600.77V158a6.58,6.58,0,1,1-13.15,0h0V45.24Z"/><path class="cls-7" d="M651.24,94c-1.94,2.13-3.28,2.71-5,2.71a5.62,5.62,0,0,1-5.61-5.6,5.88,5.88,0,0,1,1-3.3c5.4-8.51,15.85-15.27,32.08-15.27,22.4,0,34.81,13.15,34.81,32.87v53.18a6,6,0,0,1-12,0v-7c-4.8,9.1-16,13.93-27.66,13.93-20.49,0-33.44-9.87-33.44-27.66,0-17,13-27.19,33.83-27.19h27.27v-5.29c0-13.15-8.7-21.28-22.83-21.28C663.43,84.1,657.24,87.21,651.24,94Zm45.25,35.59v-8.14H669.22c-12.56,0-21.26,5.23-21.26,16.44,0,10.07,7,16.45,22,16.45C683.53,154.31,696.49,146,696.49,129.56Z"/><path class="cls-8" d="M792,164.75v-11c-4.64,6-13.53,11.8-26.1,11.8-25.15,0-40-14.7-40-46.39s14.89-46.59,40-46.59c22,0,38.68,12.8,38.68,38.29v53.92c0,26.32-18,37.14-39.66,37.14-15.08,0-25.91-5.61-32.29-13.35a5.72,5.72,0,0,1-1.15-3.47,6,6,0,0,1,10.63-3.87c4.45,4.44,10.64,9.08,22.81,9.08C780.8,190.35,792,182.35,792,164.75Zm0-53.93c0-18.38-11.61-27.08-26.1-27.08-17.79,0-27.66,11.19-27.66,35.38,0,23.78,9.87,35.19,27.66,35.19,18.17,0,26.1-15.68,26.1-15.68Z"/></g></g></g></g></svg>