<?xml version="1.0" encoding="utf-8"?>
<!-- Generator: Adobe Illustrator 21.1.0, SVG Export Plug-In . SVG Version: 6.00 Build 0)  -->
<svg version="1.1" id="Layer_1" xmlns="http://www.w3.org/2000/svg" xmlns:xlink="http://www.w3.org/1999/xlink" x="0px" y="0px"
	 viewBox="0 0 15.7 15.5" style="enable-background:new 0 0 15.7 15.5;" xml:space="preserve">
<path d="M15.4,6.6l-7-6c-0.3-0.3-0.8-0.3-1.1,0L4.7,2.8V1.2c0-0.5-0.4-0.8-0.8-0.8S3,0.7,3,1.2v3L0.3,6.6c-0.3,0.3-0.4,0.8-0.1,1.2
	C0.5,8.1,1,8.1,1.4,7.8l0.2-0.1v6.6c0,0.5,0.4,0.8,0.8,0.8h3.7c0.5,0,0.8-0.4,0.8-0.8V8.8C7,8.7,7,8.6,7.1,8.6h1.6
	c0.1,0,0.1,0.1,0.1,0.1v5.5c0,0.5,0.4,0.8,0.8,0.8h3.7c0.5,0,0.8-0.4,0.8-0.8V7.7l0.2,0.1C14.5,8,14.7,8,14.9,8
	c0.2,0,0.5-0.1,0.6-0.3C15.8,7.4,15.8,6.9,15.4,6.6z M12.5,13.4h-2V8.8c0-1-0.8-1.8-1.8-1.8H7.1c-1,0-1.8,0.8-1.8,1.8v4.7h-2V6.3
	l4.6-3.9l4.6,3.9V13.4z"/>
</svg>
