<svg xmlns="http://www.w3.org/2000/svg" viewBox="0 0 72.03 77.8"><title>Password</title><g id="Layer_2" data-name="Layer 2"><g id="Layer_1-2" data-name="Layer 1"><path d="M0,36.76a11.84,11.84,0,0,1,7.22-7H12c0-2.46-.11-4.77,0-7.06.29-5,1.32-9.67,5-13.41,3.47-3.54,5.27-5.94,9.7-7.73S36.92-.25,41.22.35A21,21,0,0,1,52.35,6c3,2.73,5.84,6.23,6.64,10.62.4,2.18,1.38,4.22,1.08,6.58A53.43,53.43,0,0,0,60,29.72h4.75A11.91,11.91,0,0,1,72,36.88c0,10-.06,20.59,0,31.23,0,4.16-1.66,7-5.46,8.7a4.75,4.75,0,0,0-1.09,1q-28,0-55.94,0C3.86,77.79,0,73.89,0,68.13q0-15.48,0-31C0,36.84.06,36.52,0,36.76Zm63.51-1H8.48L6.13,38.26V69.43l2.3,2.3H63.15L66,69.41V38.54ZM54,29.71c0-2.44,0-4.44,0-6.43a16.28,16.28,0,0,0-5.74-12.5c-5-4.5-11-6.49-17.91-4A19.17,19.17,0,0,0,18.93,18.31c-1.38,3.84-.63,7.59-1,11.4Z"/></g></g></svg>