<svg xmlns="http://www.w3.org/2000/svg" viewBox="0 0 84.03 72.02"><title>PDP</title><g id="Layer_2" data-name="Layer 2"><g id="Layer_1-2" data-name="Layer 1"><path d="M41.92,0c10.32,0,20.65,0,31,0C80.85,0,84,3.23,84,11.31Q84,36,84,60.76C84,68.77,80.8,72,72.83,72q-31,0-61.93,0C3.28,72,0,68.67,0,61Q0,36,0,11C0,3.3,3.28.06,10.95,0,21.27,0,31.59,0,41.92,0ZM78,18.28H6.28A20.54,20.54,0,0,0,6,20.41c0,13.48,0,27,0,40.45,0,4.49.69,5.13,5.3,5.14Q42,66,72.75,66C77.33,66,78,65.34,78,60.8c.05-10.32,0-20.64,0-31C78,26.06,78,22.27,78,18.28Zm-.19-6.43C77.77,6.55,77.42,6,73,6Q42,6,11.07,6c-4.6,0-5.15.82-4.43,5.82Z"/><path d="M36,45.29c0,3.48,0,7,0,10.45,0,2.87-1.27,4.3-4.19,4.28-5.14,0-10.28,0-15.43,0C13.58,60,12,58.9,12,55.93Q12,45,12,34c0-2.64,1.27-4,3.93-4,5.31,0,10.62,0,15.92,0,2.94,0,4.18,1.47,4.14,4.33C36,38,36,41.64,36,45.29Zm-6.36,8.52V36.25H18.29V53.81Z"/><path d="M42.1,35.72V30.4H71.66v5.32Z"/><path d="M71.77,42.29v5.36H42.35V42.29Z"/><path d="M71.79,54.27v5.4H42.33v-5.4Z"/></g></g></svg>