<?xml version="1.0" encoding="utf-8"?>
<!-- Generator: Adobe Illustrator 21.1.0, SVG Export Plug-In . SVG Version: 6.00 Build 0)  -->
<svg version="1.1" id="Layer_1" xmlns="http://www.w3.org/2000/svg" xmlns:xlink="http://www.w3.org/1999/xlink" x="0px" y="0px"
	 viewBox="0 0 15.7 15.5" style="enable-background:new 0 0 15.7 15.5;" xml:space="preserve">
<g>
	<path d="M15.3,12.7l-3.4-3.4c0.5-0.9,0.8-2,0.8-3C12.6,2.8,9.8,0,6.3,0S0,2.8,0,6.3c0,3.5,2.8,6.3,6.3,6.3l0,0
		c1.1,0,2.3-0.3,3.2-0.9l3.4,3.4c0.5,0.6,1.4,0.6,2,0c0,0,0,0,0,0l0.4-0.4C15.8,14.1,15.8,13.2,15.3,12.7z M6.3,10.5
		c-2.3,0-4.2-1.9-4.2-4.2S4,2.1,6.3,2.1c2.3,0,4.2,1.9,4.2,4.1C10.4,8.6,8.6,10.4,6.3,10.5L6.3,10.5z"/>
</g>
</svg>
