<svg xmlns="http://www.w3.org/2000/svg" viewBox="0 0 41.01 42.36"><title>Settings</title><g id="Layer_2" data-name="Layer 2"><g id="Layer_1-2" data-name="Layer 1"><path d="M15.48,38.84l-7.8-4.5L4.32,35.42,0,28l3-2.36c-.67-3.06-1-5.88.09-8.81L0,14.28,4.29,6.83l3.45,1,7.73-4.43L16.26,0h8.57l.79,3.4,7.82,4.51,3.35-1.12L41,14.16l-2.85,2.71a15,15,0,0,1-.06,8.46L41,28l-4.19,7.37-3.46-1.08-7.75,4.54-.78,3.33c-2.78.32-5.61.07-8.53.16ZM32.32,11.5A16.45,16.45,0,0,0,23,6.11L22.3,3h-3.5L18,6.2a16.4,16.4,0,0,0-9.28,5.27l-3.05-.94L4,13.58l2.41,2.24a14.91,14.91,0,0,0,0,10.61L3.92,28.73l1.84,3,3-.93a16.44,16.44,0,0,0,9.26,5.35l.73,3.08h3.49L23.11,36c3.89-.58,6.79-2.66,9.3-5.23l3,.95,1.7-3.05-2.39-2.21a15.28,15.28,0,0,0,0-10.64l2.42-2.3-1.85-3Z"/><path d="M20.49,30.2a9.09,9.09,0,1,1,9.14-9.1A9.11,9.11,0,0,1,20.49,30.2Zm-6-9.09a6.05,6.05,0,1,0,6.12-6A6.12,6.12,0,0,0,14.49,21.11Z"/></g></g></svg>