<?xml version="1.0" encoding="utf-8"?>
<!-- Generator: Adobe Illustrator 21.1.0, SVG Export Plug-In . SVG Version: 6.00 Build 0)  -->
<svg version="1.1" id="Layer_1" xmlns="http://www.w3.org/2000/svg" xmlns:xlink="http://www.w3.org/1999/xlink" x="0px" y="0px"
	 viewBox="0 0 15.7 15.5" style="enable-background:new 0 0 15.7 15.5;" xml:space="preserve">
<g>
	<g>
		<path d="M2,2h4.5l7,6.9l-3.7,4.4L2,6.4V2z M1.6,0C0.7,0,0,0.7,0,1.6l0,5C0,7,0.2,7.5,0.5,7.8l8.4,7.4c0.3,0.2,0.6,0.4,0.9,0.4
			c0.4,0,0.8-0.2,1.1-0.5l4.4-5.2c0.5-0.6,0.4-1.4-0.1-1.9L7.8,0.5C7.5,0.2,7.1,0,6.7,0L1.6,0L1.6,0z"/>
		<path d="M4.5,5.9c0.8,0,1.5-0.7,1.5-1.5S5.3,2.9,4.5,2.9S3,3.6,3,4.4S3.6,5.9,4.5,5.9"/>
	</g>
</g>
</svg>
