<svg xmlns="http://www.w3.org/2000/svg" viewBox="0 0 36.02 36.02"><title>User</title><g id="Layer_2" data-name="Layer 2"><g id="Layer_1-2" data-name="Layer 1"><path d="M0,17.88A18,18,0,1,1,17.94,36,18.06,18.06,0,0,1,0,17.88Zm29.71,9.7A15.08,15.08,0,0,0,28,6.47a15.25,15.25,0,0,0-21,1.11C.77,14,2.21,23.61,6.36,27.46a13.4,13.4,0,0,1,6.8-7.13c-2.75-4-2.67-7.42.06-10a6.82,6.82,0,0,1,9.06-.48,7,7,0,0,1,2.56,4.25c.48,2.34-.49,4.31-2,6.25A13.65,13.65,0,0,1,29.71,27.58Zm-2.48,2.37a9.17,9.17,0,0,0-9.35-7.77c-4.64.05-8.69,3.54-9.07,7.8C14,34.63,22.9,34,27.23,29.95ZM17.92,19.38a4.14,4.14,0,1,0-4.05-4.17A4.17,4.17,0,0,0,17.92,19.38Z"/></g></g></svg>