<svg xmlns="http://www.w3.org/2000/svg" viewBox="0 0 60.13 66.2"><title>Username</title><g id="Layer_2" data-name="Layer 2"><g id="Layer_1-2" data-name="Layer 1"><path d="M26.22.27A18.55,18.55,0,0,1,42.77,5.46,18.37,18.37,0,0,1,48,21.84c-2.49,7-6.28,11.81-13.23,13.69.86.69,1.44,1.56,2.07,1.61,5.16.38,9,3.46,12.87,6.32,4.47,3.31,6.56,8.45,9.22,13.13-.07,3.17,2.17,6.13.78,9.51H54.21c-.75-7.59-3.6-14.23-9.78-18.86-4.31-3.23-9.33-5.37-14.87-5C17.5,43.06,7.68,50.63,5.71,66.08c-.45,0-.93.11-1.4.11-1.31,0-2.63,0-4.1,0-.92-5.93,1.45-10.94,4.1-15.69,3.55-6.34,9.53-10,15.93-13.05,1.54-.73,3.88.73,4.66-2C18.43,33.69,14.58,28.95,12.06,22,10.71,11.81,15.15,4.28,26.22.27Zm5.36,5.93H27.51C21.36,10,21.36,10,18.1,15.61c-1.58,8.31,6.52,14.57,11.66,14.61a11.69,11.69,0,0,0,8.42-3.76c3-2.93,4.48-6.55,4.08-8.83C40.23,11,37,7.95,31.59,6.19Z"/></g></g></svg>