<svg xmlns="http://www.w3.org/2000/svg" xmlns:xlink="http://www.w3.org/1999/xlink" viewBox="0 0 988.73 142.18"><defs><style>.cls-1{fill:url(#linear-gradient);}.cls-2{fill:url(#linear-gradient-2);}.cls-3{fill:url(#linear-gradient-3);}.cls-4{fill:url(#linear-gradient-4);}.cls-5{fill:url(#linear-gradient-5);}.cls-6{fill:url(#linear-gradient-6);}.cls-7{fill:url(#linear-gradient-7);}.cls-8{fill:url(#linear-gradient-8);}.cls-9{fill:url(#linear-gradient-9);}.cls-10{fill:url(#linear-gradient-10);}.cls-11{fill:url(#linear-gradient-11);}.cls-12{fill:#c838fd;}.cls-13{fill:url(#linear-gradient-12);}</style><linearGradient id="linear-gradient" x1="996.93" y1="83.51" x2="206.48" y2="74.02" gradientUnits="userSpaceOnUse"><stop offset="0" stop-color="#251647"/><stop offset="1" stop-color="#c838fd"/></linearGradient><linearGradient id="linear-gradient-2" x1="996.76" y1="97.77" x2="206.31" y2="88.28" xlink:href="#linear-gradient"/><linearGradient id="linear-gradient-3" x1="996.77" y1="96.71" x2="206.32" y2="87.22" xlink:href="#linear-gradient"/><linearGradient id="linear-gradient-4" x1="1000.96" y1="81.19" x2="210.51" y2="71.7" xlink:href="#linear-gradient"/><linearGradient id="linear-gradient-5" x1="1000.79" y1="94.95" x2="210.34" y2="85.46" xlink:href="#linear-gradient"/><linearGradient id="linear-gradient-6" x1="1000.81" y1="93.69" x2="210.36" y2="84.2" xlink:href="#linear-gradient"/><linearGradient id="linear-gradient-7" x1="1000.83" y1="92.39" x2="210.37" y2="82.9" xlink:href="#linear-gradient"/><linearGradient id="linear-gradient-8" x1="1000.84" y1="91.56" x2="210.38" y2="82.07" xlink:href="#linear-gradient"/><linearGradient id="linear-gradient-9" x1="1000.85" y1="90.71" x2="210.39" y2="81.22" xlink:href="#linear-gradient"/><linearGradient id="linear-gradient-10" x1="1000.85" y1="90.33" x2="210.4" y2="80.84" xlink:href="#linear-gradient"/><linearGradient id="linear-gradient-11" x1="1000.86" y1="89.61" x2="210.41" y2="80.12" xlink:href="#linear-gradient"/><linearGradient id="linear-gradient-12" x1="4.56" y1="89.28" x2="142.18" y2="89.28" gradientUnits="userSpaceOnUse"><stop offset="0" stop-color="#251647"/><stop offset="1" stop-color="#452983"/></linearGradient></defs><title>VueCommerce</title><g id="Layer_2" data-name="Layer 2"><g id="Layer_1-2" data-name="Layer 1"><path class="cls-1" d="M263.61,31.36a4.59,4.59,0,0,1,4.29-2.94A4.52,4.52,0,0,1,272.45,33a6.36,6.36,0,0,1-.4,2l-31.34,82.66a4.53,4.53,0,0,1-8.58,0L200.78,35a6.66,6.66,0,0,1-.4-2,4.52,4.52,0,0,1,4.56-4.55,4.59,4.59,0,0,1,4.28,2.94l27.2,72.08Z"/><path class="cls-2" d="M286.92,62V97c0,8.71,2.81,16.21,16.35,16.21s16.34-7.5,16.34-16.21V62A4.35,4.35,0,0,1,324,57.75,4.2,4.2,0,0,1,328.18,62V97c0,12.73-4.15,24.39-24.91,24.39S278.35,109.73,278.35,97V62a4.23,4.23,0,0,1,4.28-4.29A4.32,4.32,0,0,1,286.92,62Z"/><path class="cls-3" d="M367.83,57c21.44,0,25.59,17,25.59,26.12,0,3.89,0,8.58-5.36,8.58H349c0,13.26,7.63,21.83,20.22,21.83,7.77,0,12.33-2.94,16.08-5.76a3.76,3.76,0,0,1,2.41-.8,3.89,3.89,0,0,1,3.89,3.88,4,4,0,0,1-1.48,3.08c-2,2-9,7.51-20.9,7.51-17.81,0-28.93-9.78-28.93-32.29C340.24,68.47,350.42,57,367.83,57Zm0,7.77c-11.65,0-18.08,7.5-18.88,19.42h36C385,74.5,381.63,64.72,367.83,64.72Z"/><path class="cls-4" d="M407.87,74.63c0-31.75,15.81-47,41.8-47,12.72,0,23.84,5.5,30.14,14.2a4.73,4.73,0,0,1,.93,2.82A4.31,4.31,0,0,1,473,47.17c-4.55-6.3-13.26-11.25-23.3-11.25-20.63,0-32.42,12.46-32.42,38.71,0,27.87,11.79,38.58,32.42,38.58,8.84,0,18.08-3.48,23.3-11a4.31,4.31,0,0,1,7.77,2.54,4.08,4.08,0,0,1-.8,2.55c-5.89,8.57-17.95,14.2-30.27,14.2C423.68,121.52,407.87,107.59,407.87,74.63Z"/><path class="cls-5" d="M547.46,89.1c0,22-10.72,32.29-28.13,32.29s-28.14-10.32-28.14-32.29S502.05,57,519.33,57,547.46,67.13,547.46,89.1Zm-8.71,0c0-16.88-7.1-24.38-19.42-24.38S499.9,72.22,499.9,89.1c0,17.15,7.1,24.52,19.43,24.52S538.75,106.25,538.75,89.1Z"/><path class="cls-6" d="M653,80.66v35.77a4.29,4.29,0,1,1-8.57,0v-34c0-10.58-3.75-17.81-16.75-17.81-11.52,0-16.74,6.16-16.74,16.07v35.77a4.29,4.29,0,0,1-8.58,0v-34c0-10.58-3.35-17.81-16.48-17.81-12.45,0-16.47,7.5-16.47,18.75v33.09a4.29,4.29,0,1,1-8.58,0V62a4.29,4.29,0,1,1,8.58,0v4.29c2.27-5,8.7-9.38,17.41-9.38,11,0,18.09,4,21.3,9.38C611.49,61.1,617.39,57,627.7,57,648.33,57,653,69.27,653,80.66Z"/><path class="cls-7" d="M761.26,80.66v35.77a4.29,4.29,0,1,1-8.57,0v-34c0-10.58-3.75-17.81-16.75-17.81-11.52,0-16.74,6.16-16.74,16.07v35.77a4.29,4.29,0,0,1-8.58,0v-34c0-10.58-3.35-17.81-16.47-17.81-12.46,0-16.48,7.5-16.48,18.75v33.09a4.29,4.29,0,1,1-8.57,0V62a4.29,4.29,0,1,1,8.57,0v4.29c2.28-5,8.71-9.38,17.41-9.38,11,0,18.09,4,21.3,9.38,3.35-5.23,9.25-9.38,19.56-9.38C756.57,57,761.26,69.27,761.26,80.66Z"/><path class="cls-8" d="M800.92,57c21.43,0,25.58,17,25.58,26.12,0,3.89,0,8.58-5.36,8.58H782c0,13.26,7.63,21.83,20.22,21.83,7.77,0,12.33-2.94,16.08-5.76a3.76,3.76,0,0,1,2.41-.8,3.89,3.89,0,0,1,3.89,3.88,4,4,0,0,1-1.48,3.08c-2,2-9,7.51-20.9,7.51-17.81,0-28.93-9.78-28.93-32.29C773.32,68.47,783.5,57,800.92,57Zm0,7.77c-11.66,0-18.09,7.5-18.89,19.42h36C818.06,74.5,814.71,64.72,800.92,64.72Z"/><path class="cls-9" d="M848.34,67.94C851,61.77,857.71,57.22,867,57.22a4.15,4.15,0,0,1,0,8.3c-12.33,0-18.62,8.58-18.62,20.9v30a4.29,4.29,0,0,1-8.58,0V62a4.29,4.29,0,0,1,8.58,0Z"/><path class="cls-10" d="M904.07,57c11.92,0,18.48,6.3,20.63,9.24a4,4,0,0,1,.93,2.55,3.8,3.8,0,0,1-3.88,3.88,4,4,0,0,1-3.22-1.6c-2-2.28-5.62-6.3-14.46-6.3-12.33,0-18.89,7.9-18.89,24.38,0,16.75,6.56,24.52,18.89,24.52,7.77,0,12.45-3.49,15.54-5.76a4,4,0,0,1,2.54-.94A3.89,3.89,0,0,1,926,110.8a4.16,4.16,0,0,1-1.75,3.35,30.51,30.51,0,0,1-20.22,7.24c-17.29,0-27.6-10.32-27.6-32.29S886.78,57,904.07,57Z"/><path class="cls-11" d="M963.14,57c21.44,0,25.59,17,25.59,26.12,0,3.89,0,8.58-5.36,8.58H944.25c0,13.26,7.64,21.83,20.23,21.83,7.77,0,12.33-2.94,16.08-5.76a3.76,3.76,0,0,1,2.41-.8,3.88,3.88,0,0,1,3.88,3.88,4,4,0,0,1-1.47,3.08c-2,2-9,7.51-20.9,7.51-17.81,0-28.93-9.78-28.93-32.29C935.55,68.47,945.73,57,963.14,57Zm0,7.77c-11.65,0-18.08,7.5-18.89,19.42h36C980.29,74.5,976.94,64.72,963.14,64.72Z"/><path class="cls-12" d="M89,17.93A17.93,17.93,0,0,1,73.44,35.7a18.31,18.31,0,0,1-2.35.16c-.54,0-1.07,0-1.61,0a36.81,36.81,0,0,0-4.47.49A71.42,71.42,0,0,0,4.56,96.13,71.08,71.08,0,0,1,71.09,0,17.93,17.93,0,0,1,89,17.93Z"/><path class="cls-13" d="M142.18,71.09a71.31,71.31,0,0,1-.67,9.7c-.21,1.55-.47,3.09-.78,4.61A71.09,71.09,0,0,1,4.56,96.13,71.42,71.42,0,0,1,65,36.39a35.26,35.26,0,1,0,41.31,34.7A17.91,17.91,0,0,1,122.07,53.3a17.36,17.36,0,0,1,2.18-.14A17.93,17.93,0,0,1,142.18,71.09Z"/><path class="cls-12" d="M108.73,15.65a18,18,0,1,0,18,18A18,18,0,0,0,108.73,15.65Z"/></g></g></svg>