<svg xmlns="http://www.w3.org/2000/svg" xmlns:xlink="http://www.w3.org/1999/xlink" viewBox="0 0 583.73 143.96"><defs><style>.cls-1{fill:#fb0;}.cls-2{fill:#07c8d4;}.cls-3{fill:url(#linear-gradient);}.cls-4{fill:url(#linear-gradient-2);}.cls-5{fill:url(#linear-gradient-3);}.cls-6{fill:url(#linear-gradient-4);}.cls-7{fill:url(#linear-gradient-5);}.cls-8{fill:url(#linear-gradient-6);}.cls-9{fill:url(#linear-gradient-7);}.cls-10{fill:url(#linear-gradient-8);}</style><linearGradient id="linear-gradient" x1="5.99" y1="62.34" x2="25.08" y2="95.39" gradientUnits="userSpaceOnUse"><stop offset="0" stop-color="#251647"/><stop offset="1" stop-color="#452983"/></linearGradient><linearGradient id="linear-gradient-2" x1="592.1" y1="76.21" x2="186.2" y2="74.84" gradientUnits="userSpaceOnUse"><stop offset="0" stop-color="#251a3e"/><stop offset="1" stop-color="#fb0"/></linearGradient><linearGradient id="linear-gradient-3" x1="592.05" y1="90.89" x2="186.15" y2="89.52" xlink:href="#linear-gradient-2"/><linearGradient id="linear-gradient-4" x1="592.05" y1="90.3" x2="186.15" y2="88.94" xlink:href="#linear-gradient-2"/><linearGradient id="linear-gradient-5" x1="592.1" y1="76.13" x2="186.2" y2="74.76" xlink:href="#linear-gradient-2"/><linearGradient id="linear-gradient-6" x1="592.09" y1="78.58" x2="186.19" y2="77.22" xlink:href="#linear-gradient-2"/><linearGradient id="linear-gradient-7" x1="592.05" y1="89.49" x2="186.16" y2="88.12" xlink:href="#linear-gradient-2"/><linearGradient id="linear-gradient-8" x1="592.11" y1="73.32" x2="186.21" y2="71.95" xlink:href="#linear-gradient-2"/></defs><title>VueFind</title><g id="Layer_2" data-name="Layer 2"><g id="Layer_1-2" data-name="Layer 1"><circle class="cls-1" cx="72.31" cy="74.75" r="18.38"/><path class="cls-1" d="M94.65,0H29.75C17.1.51,10.27,7.47,5,16.08a34.26,34.26,0,0,0-5,15.3V68.15A34.35,34.35,0,0,1,32.65,36.51H94.88a18.32,18.32,0,0,0,18.24-19A18.41,18.41,0,0,0,94.65,0Z"/><polygon class="cls-2" points="36.51 36.54 36.51 36.51 35.85 36.51 36.51 36.54"/><path class="cls-3" d="M32.65,36.51A34.35,34.35,0,0,0,0,68.15v57.56a18.26,18.26,0,0,0,36.51,0V36.54l-.66,0Z"/><path class="cls-4" d="M235.46,32.12a4.56,4.56,0,0,1,4.25-2.93,4.48,4.48,0,0,1,4.52,4.52,6.58,6.58,0,0,1-.4,2l-31.09,82a4.49,4.49,0,0,1-8.51,0l-31.09-82a6.58,6.58,0,0,1-.4-2,4.48,4.48,0,0,1,4.52-4.52,4.56,4.56,0,0,1,4.25,2.93l27,71.48Z"/><path class="cls-5" d="M258.58,62.55V97.23c0,8.63,2.79,16.07,16.21,16.07S291,105.86,291,97.23V62.55a4.32,4.32,0,0,1,4.39-4.26,4.17,4.17,0,0,1,4.12,4.26V97.23c0,12.62-4.12,24.18-24.72,24.18s-24.71-11.56-24.71-24.18V62.55a4.2,4.2,0,0,1,4.25-4.26A4.28,4.28,0,0,1,258.58,62.55Z"/><path class="cls-6" d="M338.84,57.5c21.26,0,25.38,16.87,25.38,25.91,0,3.85,0,8.5-5.32,8.5H320.1c0,13.16,7.58,21.66,20.07,21.66,7.7,0,12.22-2.92,15.94-5.71a3.73,3.73,0,0,1,2.4-.8,3.86,3.86,0,0,1,3.85,3.85A4,4,0,0,1,360.9,114c-2,2-8.91,7.44-20.73,7.44-17.67,0-28.7-9.7-28.7-32C311.47,68.92,321.56,57.5,338.84,57.5Zm0,7.7c-11.56,0-17.94,7.44-18.74,19.27h35.75C355.85,74.9,352.53,65.2,338.84,65.2Z"/><path class="cls-7" d="M388.4,116.23a4.52,4.52,0,1,1-9,0V34.77a4.47,4.47,0,0,1,4.51-4.51h42.66a4.12,4.12,0,1,1,0,8.23H388.4V71.58h29.23a4.12,4.12,0,1,1,0,8.24H388.4Z"/><path class="cls-8" d="M441.29,40.75c0-3.85,1.86-5.31,5-5.31s5.05,1.46,5.05,5.31c0,3.19-1.86,5-5.05,5S441.29,43.94,441.29,40.75Zm9.3,75.74a4.26,4.26,0,1,1-8.51,0V62.55a4.26,4.26,0,1,1,8.51,0Z"/><path class="cls-9" d="M518.49,81v35.47a4.26,4.26,0,1,1-8.51,0V82.74c0-10.49-3.05-17.67-15.94-17.67-13.16,0-17.67,8-17.67,18.6v32.82a4.26,4.26,0,1,1-8.51,0V62.55a4.26,4.26,0,1,1,8.51,0V66.8c2.52-5,9-9.3,17.67-9.3C514.5,57.5,518.49,69.72,518.49,81Z"/><path class="cls-10" d="M575.23,66.13V29.33a4.25,4.25,0,1,1,8.5,0v65.9c0,17.54-10.89,26.18-26,26.18-17.14,0-27.24-10.23-27.24-32S540,57.5,557.16,57.5C565.66,57.5,572.17,61.88,575.23,66.13Zm0,10.77s-5.05-11.7-17.54-11.7C545.6,65.2,539,73,539,89.39c0,16.61,6.51,24.31,18.74,24.31,10.23,0,17.54-5.84,17.54-18.47Z"/></g></g></svg>