<svg xmlns="http://www.w3.org/2000/svg" xmlns:xlink="http://www.w3.org/1999/xlink" viewBox="0 0 773.7 177.38"><defs><style>.cls-1{fill:#f04e4c;}.cls-2{fill:#ff8010;}.cls-3{fill:url(#linear-gradient);}.cls-4{fill:url(#linear-gradient-2);}.cls-5{fill:url(#linear-gradient-3);}.cls-6{fill:url(#linear-gradient-4);}.cls-7{fill:url(#linear-gradient-5);}.cls-8{fill:url(#linear-gradient-6);}.cls-9{fill:url(#linear-gradient-7);}.cls-10{fill:url(#linear-gradient-8);}</style><linearGradient id="linear-gradient" x1="81.95" y1="67.15" x2="5.49" y2="7.34" gradientUnits="userSpaceOnUse"><stop offset="0" stop-color="#251647"/><stop offset="1" stop-color="#452983"/></linearGradient><linearGradient id="linear-gradient-2" x1="766.84" y1="91.6" x2="438.11" y2="91.6" gradientUnits="userSpaceOnUse"><stop offset="0" stop-color="#251547"/><stop offset="1" stop-color="#f04e4c"/></linearGradient><linearGradient id="linear-gradient-3" x1="766.84" y1="109.48" x2="438.11" y2="109.48" xlink:href="#linear-gradient-2"/><linearGradient id="linear-gradient-4" x1="766.84" y1="109" x2="438.11" y2="109" xlink:href="#linear-gradient-2"/><linearGradient id="linear-gradient-5" x1="766.84" y1="91.6" x2="438.11" y2="91.6" xlink:href="#linear-gradient-2"/><linearGradient id="linear-gradient-6" x1="766.84" y1="98.78" x2="438.11" y2="98.78" xlink:href="#linear-gradient-2"/><linearGradient id="linear-gradient-7" x1="766.84" y1="124.48" x2="438.11" y2="124.48" xlink:href="#linear-gradient-2"/><linearGradient id="linear-gradient-8" x1="766.84" y1="89.13" x2="438.11" y2="89.13" xlink:href="#linear-gradient-2"/></defs><title>VueStyle Logo </title><g id="Layer_2" data-name="Layer 2"><g id="Layer_1-2" data-name="Layer 1"><path class="cls-1" d="M125.92,78.71c0,.25,0,.49,0,.74a22,22,0,0,1-6.37,14.21l-8.39,8.4L68.68,144.48l-.48.47-8.39,8.39L57,156.1l-8.39,8.39a22,22,0,0,1-31.1-31.09l32.2-32.2,4-4,3.65-3.65c.45-.43.88-.86,1.29-1.27l.67-.67.51-.52.46-.45c.07-.07.13-.15.2-.21l.35-.34.49-.49,4-4C66,85,66.56,84.4,67.1,83.88l.67-.67c.18-.18.35-.36.52-.52l.45-.46A2,2,0,0,1,69,82l.34-.35.5-.49,4-4a32.08,32.08,0,0,0,9.38-20.5c.07-.78.1-1.56.1-2.35A32.25,32.25,0,0,0,69.83,28.07l46.49,31.59a22,22,0,0,1,9.58,17.39C125.93,77.61,125.93,78.17,125.92,78.71Z"/><path class="cls-2" d="M65.41,85.57l-4,4-.49.49-.35.34c-.07.06-.13.14-.2.21l-.46.45-.51.52-.67.67c-.41.41-.84.84-1.29,1.27l.72-.73,4-4C63,87.92,64.22,86.73,65.41,85.57Z"/><circle class="cls-1" cx="137.72" cy="31.05" r="21.98"/><path class="cls-3" d="M83.28,54.32c0,.79,0,1.57-.1,2.35a32.08,32.08,0,0,1-9.38,20.5l-4,4-.45-.3-1-.69L28.8,53.34A20.65,20.65,0,0,1,27,52L9.61,40.15A22,22,0,0,1,34.33,3.78L49.84,14.33l.81.55c.65.47,1.27.95,1.88,1.46.34.2.66.41,1,.63L69,27.52l.8.55A32.25,32.25,0,0,1,83.28,54.32Z"/><polygon class="cls-2" points="68.68 144.48 60.29 152.87 59.81 153.34 68.2 144.95 68.68 144.48"/><path class="cls-4" d="M306.31,40.14a5.48,5.48,0,0,1,5.11-3.52,5.38,5.38,0,0,1,5.42,5.43,7.72,7.72,0,0,1-.48,2.39L279,142.91a5.39,5.39,0,0,1-10.21,0L231.47,44.44a7.72,7.72,0,0,1-.48-2.39,5.38,5.38,0,0,1,5.42-5.43,5.48,5.48,0,0,1,5.11,3.52L273.91,126Z"/><path class="cls-5" d="M334.07,76.68v41.65c0,10.38,3.35,19.31,19.47,19.31S373,128.71,373,118.33V76.68a5.18,5.18,0,0,1,5.27-5.11,5,5,0,0,1,4.94,5.11v41.65c0,15.16-4.94,29.05-29.68,29.05-24.58,0-29.68-13.89-29.68-29V76.68a5,5,0,0,1,5.1-5.11A5.14,5.14,0,0,1,334.07,76.68Z"/><path class="cls-6" d="M430.46,70.62c25.53,0,30.48,20.26,30.48,31.12,0,4.62,0,10.21-6.39,10.21H408c0,15.8,9.1,26,24.1,26,9.26,0,14.68-3.51,19.15-6.86a4.46,4.46,0,0,1,2.87-1,4.63,4.63,0,0,1,4.63,4.63,4.8,4.8,0,0,1-1.75,3.67c-2.4,2.39-10.69,8.94-24.9,8.94-21.22,0-34.47-11.65-34.47-38.46C397.58,84.34,409.71,70.62,430.46,70.62Zm0,9.25c-13.89,0-21.55,8.94-22.51,23.14h42.93C450.88,91.52,446.89,79.87,430.46,79.87Z"/><path class="cls-7" d="M511.2,45.56c-16.76,0-23.14,8.3-23.14,17.4,0,26.49,60.32,15.16,60.32,53.62,0,20-13.72,31-38.3,31-18.19,0-31.75-9.26-37.18-19.63a5.63,5.63,0,0,1-.8-2.88,5,5,0,0,1,5.11-5.1,5.11,5.11,0,0,1,4.47,2.55c5.1,8.3,14.36,15.16,28.4,15.16,17.56,0,27.45-7,27.45-21.06,0-29.85-60.32-15.8-60.32-53.62,0-14.69,10.69-27.29,34-27.29,15.16,0,27.45,6.38,34.15,16.43a5.27,5.27,0,0,1,1,3,5.14,5.14,0,0,1-9.26,3C532.27,52.26,524.61,45.56,511.2,45.56Z"/><path class="cls-8" d="M569.76,56.09a5.25,5.25,0,0,1,5.11-5.1,5.14,5.14,0,0,1,5.11,5.1V72.85h10.37a4.79,4.79,0,0,1,0,9.58H580v44c0,6.86,3.83,10.53,9.25,10.53a4.79,4.79,0,1,1,0,9.58c-12.6,0-19.47-8.46-19.47-20.11v-44h-6.22a4.79,4.79,0,1,1,0-9.58h6.22Z"/><path class="cls-9" d="M629.6,142.27,603,78.91a5.74,5.74,0,0,1-.48-2.23,5,5,0,0,1,5.11-5.11,4.84,4.84,0,0,1,4.79,3.36l22.5,55,22.5-55a4.84,4.84,0,0,1,4.79-3.36,5,5,0,0,1,5.11,5.11,5.74,5.74,0,0,1-.48,2.23l-31.44,74.85c-6.54,15.64-14.68,23.62-29.84,23.62a4.79,4.79,0,1,1,0-9.58C619.39,167.8,623.06,158.39,629.6,142.27Z"/><path class="cls-10" d="M690.4,36.78v91.13c0,6.38,2.07,9.09,6.38,9.09a4.79,4.79,0,1,1,0,9.58c-10.69,0-16.59-6.38-16.59-18.67V36.78a5.24,5.24,0,0,1,5.1-5.1A5.14,5.14,0,0,1,690.4,36.78Z"/><path class="cls-6" d="M743.22,70.62c25.53,0,30.48,20.26,30.48,31.12,0,4.62,0,10.21-6.38,10.21h-46.6c0,15.8,9.09,26,24.1,26,9.25,0,14.68-3.51,19.15-6.86a4.42,4.42,0,0,1,2.87-1,4.64,4.64,0,0,1,4.63,4.63,4.77,4.77,0,0,1-1.76,3.67c-2.39,2.39-10.69,8.94-24.89,8.94-21.23,0-34.47-11.65-34.47-38.46C710.35,84.34,722.47,70.62,743.22,70.62Zm0,9.25c-13.88,0-21.54,8.94-22.5,23.14h42.93C763.65,91.52,759.66,79.87,743.22,79.87Z"/></g></g></svg>